<svg width="2772" height="431" viewBox="0 0 2772 431" fill="none" xmlns="http://www.w3.org/2000/svg">
<path d="M131.359 429.284C114.97 429.284 98.8967 426.448 83.1386 420.775C67.6956 415.102 53.6708 406.277 41.0643 394.301C28.773 382.64 19.0029 367.985 11.7542 350.336C4.5054 332.372 0.881026 311.413 0.881026 287.461C0.881026 260.357 4.97815 237.035 13.1724 217.495C21.6818 197.639 32.8701 181.409 46.7373 168.802C60.6044 155.88 76.0474 146.268 93.0662 139.965C110.085 133.661 127.104 130.51 144.123 130.51C154.208 130.51 163.82 131.298 172.96 132.873C182.1 134.134 190.609 136.025 198.488 138.546C199.434 115.539 200.537 92.375 201.797 69.0529C203.373 45.7309 205.107 22.724 206.998 0.0322269L286.419 5.23243C283.897 31.391 281.691 59.5981 279.8 89.8537C277.909 119.794 276.491 150.365 275.546 181.566C274.915 212.767 274.6 243.181 274.6 272.806C274.6 300.54 274.915 327.014 275.546 352.227C276.491 377.125 277.594 399.817 278.855 420.302L197.07 426.448C196.755 420.46 196.597 414.629 196.597 408.956C187.458 414.944 177.372 419.829 166.342 423.611C155.626 427.393 143.965 429.284 131.359 429.284ZM76.9929 283.206C76.9929 299.595 80.1445 312.516 86.4478 321.971C92.7511 331.111 100.473 337.572 109.612 341.354C118.752 345.136 127.577 347.027 136.086 347.027C146.171 347.027 156.256 344.821 166.342 340.408C176.427 335.996 185.882 328.275 194.706 317.244C194.706 313.462 194.706 309.838 194.706 306.371C194.706 280.843 195.021 254.684 195.652 227.895C180.839 214.973 164.766 208.513 147.432 208.513C140.183 208.513 132.462 209.616 124.267 211.822C116.073 214.028 108.352 217.967 101.103 223.64C94.1693 228.998 88.3388 236.562 83.6113 246.332C79.199 255.787 76.9929 268.078 76.9929 283.206ZM464.717 430.703C439.504 430.703 417.443 426.605 398.533 418.411C379.938 410.217 364.495 399.029 352.204 384.846C339.913 370.349 330.773 353.803 324.785 335.208C318.797 316.614 315.803 297.073 315.803 276.588C315.803 255.787 319.427 236.562 326.676 218.913C334.24 200.949 344.483 185.348 357.404 172.111C370.641 158.874 386.084 148.632 403.733 141.383C421.382 133.819 440.607 130.037 461.408 130.037C483.154 130.037 503.325 133.819 521.919 141.383C540.514 148.947 556.745 159.505 570.612 173.057C584.479 186.609 595.195 202.525 602.759 220.804C610.638 239.083 614.577 258.939 614.577 280.37C614.577 327.959 601.498 364.991 575.34 391.465C549.181 417.623 512.307 430.703 464.717 430.703ZM464.245 354.118C487.251 354.118 504.743 347.657 516.719 334.735C529.011 321.814 535.156 303.219 535.156 278.952C535.156 257.205 528.538 239.714 515.301 226.477C502.064 213.24 484.73 206.622 463.299 206.622C450.377 206.622 438.559 210.088 427.843 217.022C417.128 223.64 408.461 232.623 401.842 243.968C395.539 254.999 392.387 267.291 392.387 280.843C392.387 292.819 394.751 304.48 399.479 315.826C404.521 327.171 412.4 336.469 423.116 343.718C433.831 350.651 447.541 354.118 464.245 354.118ZM651.632 428.812C651.317 424.084 651.002 416.205 650.687 405.174C650.372 394.459 650.057 381.537 649.741 366.409C649.426 351.281 649.269 335.051 649.269 317.717C649.269 300.067 649.269 282.418 649.269 264.769C649.269 245.229 649.269 226.634 649.269 208.985C649.584 191.336 649.741 176.051 649.741 163.129C650.057 150.207 650.214 140.91 650.214 135.237L730.108 133.819C729.478 142.644 729.005 153.359 728.69 165.966C736.884 154.935 746.339 146.268 757.054 139.965C767.77 133.661 780.061 130.51 793.929 130.51C810.632 130.51 824.342 135.395 835.057 145.165C846.088 154.935 855.07 167.699 862.004 183.457C884.695 148.159 912.587 130.51 945.68 130.51C964.274 130.51 979.56 134.607 991.536 142.801C1003.83 150.68 1013.44 161.396 1020.37 174.948C1027.31 188.5 1032.35 203.785 1035.5 220.804C1038.97 237.823 1041.17 255.314 1042.12 273.279C1043.06 291.243 1043.54 308.577 1043.54 325.281C1043.54 345.136 1043.22 363.258 1042.59 379.646C1041.96 396.035 1041.8 411.635 1042.12 426.448H960.335C960.335 418.884 960.335 409.271 960.335 397.61C960.335 386.265 960.335 374.761 960.335 363.1C960.65 351.124 960.807 340.881 960.807 332.372C960.807 323.547 960.807 318.347 960.807 316.771C960.807 297.861 960.335 280.055 959.389 263.351C958.444 246.647 956.08 233.095 952.298 222.695C948.516 212.295 942.37 207.094 933.861 207.094C925.667 207.094 918.418 211.034 912.115 218.913C905.811 226.792 900.138 237.035 895.096 249.641C890.368 262.248 886.271 275.642 882.805 289.825C883.435 302.116 883.908 314.407 884.223 326.699C884.538 338.675 884.695 350.336 884.695 361.682C884.695 374.604 884.538 385.792 884.223 395.247C884.223 405.017 884.223 415.417 884.223 426.448H804.802C804.802 400.92 804.644 378.385 804.329 358.845C804.014 339.305 803.383 320.395 802.438 302.116C800.862 269.339 797.395 245.387 792.038 230.259C786.995 214.816 779.904 207.094 770.764 207.094C760.679 207.094 752.169 213.24 745.236 225.531C738.302 237.508 732.629 252.163 728.217 269.497C728.532 294.71 729.163 321.026 730.108 348.445C731.054 375.864 732.314 402.338 733.89 427.866L651.632 428.812ZM1227.44 429.757C1197.19 429.757 1170.56 423.769 1147.55 411.793C1124.86 400.132 1107.05 383.743 1094.13 362.627C1081.52 341.511 1075.22 317.086 1075.22 289.352C1075.22 272.648 1078.06 255.157 1083.73 236.877C1089.4 218.283 1098.54 200.949 1111.15 184.875C1123.75 168.802 1140.3 155.723 1160.79 145.638C1181.59 135.552 1206.8 130.51 1236.42 130.51C1257.86 130.51 1275.82 132.873 1290.32 137.601C1305.13 142.328 1317.11 148.474 1326.25 156.038C1335.7 163.602 1342.79 171.639 1347.52 180.148C1352.56 188.657 1355.87 196.852 1357.45 204.731C1359.34 212.295 1360.28 218.598 1360.28 223.64C1360.28 254.211 1347.36 277.848 1321.52 294.552C1295.99 310.941 1259.75 319.135 1212.79 319.135C1202.07 319.135 1191.83 318.662 1182.06 317.717C1172.6 316.771 1163.78 315.668 1155.59 314.407C1161.57 330.166 1171.5 341.827 1185.37 349.39C1199.24 356.639 1213.58 360.264 1228.39 360.264C1249.82 360.264 1268.73 356.482 1285.12 348.918C1301.51 341.039 1316.95 329.062 1331.45 312.989L1373.52 373.5C1363.44 381.695 1352.09 390.204 1339.48 399.029C1327.19 407.853 1312.06 415.102 1294.1 420.775C1276.14 426.763 1253.92 429.757 1227.44 429.757ZM1237.84 201.421C1219.25 201.421 1202.86 206.149 1188.68 215.604C1174.5 225.059 1164.09 237.508 1157.48 252.951C1165.36 254.211 1173.08 255.314 1180.64 256.26C1188.52 256.89 1196.24 257.205 1203.81 257.205C1210.74 257.205 1218.62 256.575 1227.44 255.314C1236.58 254.054 1245.41 252.163 1253.92 249.641C1262.74 247.12 1269.99 243.968 1275.66 240.186C1281.34 236.089 1284.17 231.362 1284.17 226.004C1284.17 223.483 1282.91 220.331 1280.39 216.549C1277.87 212.767 1273.3 209.301 1266.68 206.149C1260.06 202.997 1250.45 201.421 1237.84 201.421ZM1529.28 429.284C1512.89 429.284 1496.82 426.448 1481.06 420.775C1465.62 415.102 1451.59 406.277 1438.98 394.301C1426.69 382.64 1416.92 367.985 1409.67 350.336C1402.43 332.372 1398.8 311.413 1398.8 287.461C1398.8 260.357 1402.9 237.035 1411.09 217.495C1419.6 197.639 1430.79 181.409 1444.66 168.802C1458.52 155.88 1473.97 146.268 1490.99 139.965C1508.01 133.661 1525.02 130.51 1542.04 130.51C1552.13 130.51 1561.74 131.298 1570.88 132.873C1580.02 134.134 1588.53 136.025 1596.41 138.546C1597.35 115.539 1598.46 92.375 1599.72 69.0529C1601.29 45.7309 1603.03 22.724 1604.92 0.0322269L1684.34 5.23243C1681.82 31.391 1679.61 59.5981 1677.72 89.8537C1675.83 119.794 1674.41 150.365 1673.47 181.566C1672.84 212.767 1672.52 243.181 1672.52 272.806C1672.52 300.54 1672.84 327.014 1673.47 352.227C1674.41 377.125 1675.51 399.817 1676.78 420.302L1594.99 426.448C1594.68 420.46 1594.52 414.629 1594.52 408.956C1585.38 414.944 1575.29 419.829 1564.26 423.611C1553.55 427.393 1541.89 429.284 1529.28 429.284ZM1474.91 283.206C1474.91 299.595 1478.06 312.516 1484.37 321.971C1490.67 331.111 1498.39 337.572 1507.53 341.354C1516.67 345.136 1525.5 347.027 1534.01 347.027C1544.09 347.027 1554.18 344.821 1564.26 340.408C1574.35 335.996 1583.8 328.275 1592.63 317.244C1592.63 313.462 1592.63 309.838 1592.63 306.371C1592.63 280.843 1592.94 254.684 1593.57 227.895C1578.76 214.973 1562.69 208.513 1545.35 208.513C1538.1 208.513 1530.38 209.616 1522.19 211.822C1513.99 214.028 1506.27 217.967 1499.02 223.64C1492.09 228.998 1486.26 236.562 1481.53 246.332C1477.12 255.787 1474.91 268.078 1474.91 283.206ZM1862.64 430.703C1837.42 430.703 1815.36 426.605 1796.45 418.411C1777.86 410.217 1762.42 399.029 1750.12 384.846C1737.83 370.349 1728.69 353.803 1722.71 335.208C1716.72 316.614 1713.72 297.073 1713.72 276.588C1713.72 255.787 1717.35 236.562 1724.6 218.913C1732.16 200.949 1742.4 185.348 1755.32 172.111C1768.56 158.874 1784 148.632 1801.65 141.383C1819.3 133.819 1838.53 130.037 1859.33 130.037C1881.07 130.037 1901.25 133.819 1919.84 141.383C1938.43 148.947 1954.67 159.505 1968.53 173.057C1982.4 186.609 1993.12 202.525 2000.68 220.804C2008.56 239.083 2012.5 258.939 2012.5 280.37C2012.5 327.959 1999.42 364.991 1973.26 391.465C1947.1 417.623 1910.23 430.703 1862.64 430.703ZM1862.17 354.118C1885.17 354.118 1902.66 347.657 1914.64 334.735C1926.93 321.814 1933.08 303.219 1933.08 278.952C1933.08 257.205 1926.46 239.714 1913.22 226.477C1899.98 213.24 1882.65 206.622 1861.22 206.622C1848.3 206.622 1836.48 210.088 1825.76 217.022C1815.05 223.64 1806.38 232.623 1799.76 243.968C1793.46 254.999 1790.31 267.291 1790.31 280.843C1790.31 292.819 1792.67 304.48 1797.4 315.826C1802.44 327.171 1810.32 336.469 1821.04 343.718C1831.75 350.651 1845.46 354.118 1862.17 354.118ZM2049.55 428.812C2049.24 424.084 2048.92 416.205 2048.61 405.174C2048.29 394.459 2047.98 381.537 2047.66 366.409C2047.35 351.281 2047.19 335.051 2047.19 317.717C2047.19 300.067 2047.19 282.418 2047.19 264.769C2047.19 245.229 2047.19 226.634 2047.19 208.985C2047.5 191.336 2047.66 176.051 2047.66 163.129C2047.98 150.207 2048.13 140.91 2048.13 135.237L2128.03 133.819C2127.4 142.644 2126.93 153.359 2126.61 165.966C2134.8 154.935 2144.26 146.268 2154.97 139.965C2165.69 133.661 2177.98 130.51 2191.85 130.51C2208.55 130.51 2222.26 135.395 2232.98 145.165C2244.01 154.935 2252.99 167.699 2259.92 183.457C2282.62 148.159 2310.51 130.51 2343.6 130.51C2362.19 130.51 2377.48 134.607 2389.46 142.801C2401.75 150.68 2411.36 161.396 2418.29 174.948C2425.23 188.5 2430.27 203.785 2433.42 220.804C2436.89 237.823 2439.09 255.314 2440.04 273.279C2440.99 291.243 2441.46 308.577 2441.46 325.281C2441.46 345.136 2441.14 363.258 2440.51 379.646C2439.88 396.035 2439.72 411.635 2440.04 426.448H2358.26C2358.26 418.884 2358.26 409.271 2358.26 397.61C2358.26 386.265 2358.26 374.761 2358.26 363.1C2358.57 351.124 2358.73 340.881 2358.73 332.372C2358.73 323.547 2358.73 318.347 2358.73 316.771C2358.73 297.861 2358.26 280.055 2357.31 263.351C2356.36 246.647 2354 233.095 2350.22 222.695C2346.44 212.295 2340.29 207.094 2331.78 207.094C2323.59 207.094 2316.34 211.034 2310.04 218.913C2303.73 226.792 2298.06 237.035 2293.02 249.641C2288.29 262.248 2284.19 275.642 2280.72 289.825C2281.36 302.116 2281.83 314.407 2282.14 326.699C2282.46 338.675 2282.62 350.336 2282.62 361.682C2282.62 374.604 2282.46 385.792 2282.14 395.247C2282.14 405.017 2282.14 415.417 2282.14 426.448H2202.72C2202.72 400.92 2202.56 378.385 2202.25 358.845C2201.93 339.305 2201.3 320.395 2200.36 302.116C2198.78 269.339 2195.32 245.387 2189.96 230.259C2184.92 214.816 2177.82 207.094 2168.68 207.094C2158.6 207.094 2150.09 213.24 2143.16 225.531C2136.22 237.508 2130.55 252.163 2126.14 269.497C2126.45 294.71 2127.08 321.026 2128.03 348.445C2128.97 375.864 2130.23 402.338 2131.81 427.866L2049.55 428.812ZM2625.36 429.757C2595.11 429.757 2568.48 423.769 2545.47 411.793C2522.78 400.132 2504.97 383.743 2492.05 362.627C2479.44 341.511 2473.14 317.086 2473.14 289.352C2473.14 272.648 2475.98 255.157 2481.65 236.877C2487.32 218.283 2496.46 200.949 2509.07 184.875C2521.67 168.802 2538.22 155.723 2558.71 145.638C2579.51 135.552 2604.72 130.51 2634.35 130.51C2655.78 130.51 2673.74 132.873 2688.24 137.601C2703.05 142.328 2715.03 148.474 2724.17 156.038C2733.62 163.602 2740.71 171.639 2745.44 180.148C2750.48 188.657 2753.79 196.852 2755.37 204.731C2757.26 212.295 2758.2 218.598 2758.2 223.64C2758.2 254.211 2745.28 277.848 2719.44 294.552C2693.91 310.941 2657.67 319.135 2610.71 319.135C2599.99 319.135 2589.75 318.662 2579.98 317.717C2570.52 316.771 2561.7 315.668 2553.51 314.407C2559.49 330.166 2569.42 341.827 2583.29 349.39C2597.16 356.639 2611.5 360.264 2626.31 360.264C2647.74 360.264 2666.65 356.482 2683.04 348.918C2699.43 341.039 2714.87 329.062 2729.37 312.989L2771.44 373.5C2761.36 381.695 2750.01 390.204 2737.4 399.029C2725.11 407.853 2709.98 415.102 2692.02 420.775C2674.06 426.763 2651.84 429.757 2625.36 429.757ZM2635.76 201.421C2617.17 201.421 2600.78 206.149 2586.6 215.604C2572.42 225.059 2562.02 237.508 2555.4 252.951C2563.28 254.211 2571 255.314 2578.56 256.26C2586.44 256.89 2594.16 257.205 2601.73 257.205C2608.66 257.205 2616.54 256.575 2625.36 255.314C2634.5 254.054 2643.33 252.163 2651.84 249.641C2660.66 247.12 2667.91 243.968 2673.58 240.186C2679.26 236.089 2682.09 231.362 2682.09 226.004C2682.09 223.483 2680.83 220.331 2678.31 216.549C2675.79 212.767 2671.22 209.301 2664.6 206.149C2657.98 202.997 2648.37 201.421 2635.76 201.421Z" fill="url(#paint0_linear_43_2)"/>
<defs>
<linearGradient id="paint0_linear_43_2" x1="-10.4648" y1="195.312" x2="2808.53" y2="195.312" gradientUnits="userSpaceOnUse">
<stop stop-color="#FF9CA1"/>
<stop offset="1" stop-color="#FFB169"/>
</linearGradient>
</defs>
</svg>
